<svg version="1.1" id="Layer_1" xmlns="http://www.w3.org/2000/svg" xmlns:xlink="http://www.w3.org/1999/xlink" x="0px" y="0px"
	 width="100%" viewBox="0 0 1024 1024" enable-background="new 0 0 1024 1024" xml:space="preserve">
<path fill="#000000" opacity="1.000000" stroke="none" 
	d="
M559.000000,1025.000000 
	C372.666656,1025.000000 186.833328,1025.000000 1.000000,1025.000000 
	C1.000000,683.666687 1.000000,342.333344 1.000000,1.000000 
	C342.333344,1.000000 683.666687,1.000000 1025.000000,1.000000 
	C1025.000000,342.333344 1025.000000,683.666687 1025.000000,1025.000000 
	C869.833313,1025.000000 714.666687,1025.000000 559.000000,1025.000000 
M377.949951,450.137909 
	C377.949951,450.137909 377.559662,449.833740 377.601868,449.539062 
	C377.494202,449.332245 377.326141,449.253143 376.781281,448.654541 
	C371.099335,441.784668 365.417389,434.914795 359.483063,427.404358 
	C356.301117,422.056946 352.428558,416.994049 350.083405,411.301880 
	C345.441345,400.034454 340.645325,388.613251 343.878265,374.999878 
	C342.264771,376.150299 341.412476,376.474976 341.005310,377.092926 
	C337.677246,382.144073 334.077118,387.063385 331.274353,392.398224 
	C329.031708,396.666809 326.546082,401.407410 326.347351,406.032135 
	C325.850128,417.602722 324.217865,429.508392 330.226624,440.425018 
	C331.215454,442.221588 332.105804,444.072327 333.174866,446.639252 
	C337.740448,454.548126 342.306030,462.457001 346.724762,470.416077 
	C346.724762,470.416077 346.922455,470.440002 347.096283,471.185791 
	C347.486755,471.812286 347.877228,472.438812 348.413544,473.588348 
	C348.947998,474.295929 349.482422,475.003510 350.009369,475.931793 
	C350.009369,475.931793 350.217560,476.005615 350.429291,476.636688 
	C351.445648,477.903015 352.519165,479.128082 353.469116,480.442413 
	C359.377014,488.616638 365.257233,496.810883 371.181244,505.737671 
	C372.914673,510.543671 374.648071,515.349670 376.277924,521.014099 
	C376.308899,523.629944 376.339874,526.245728 376.109467,529.682190 
	C376.052185,529.963501 375.994934,530.244873 375.523041,531.075073 
	C374.460297,533.933716 373.620789,536.900330 372.297974,539.633118 
	C364.680511,555.370056 349.795410,562.190491 333.467163,557.582397 
	C330.324188,556.695374 327.153442,555.906677 323.761658,554.418396 
	C323.487946,554.025146 323.302338,553.484436 322.927490,553.260376 
	C315.024017,548.536316 310.053070,541.569885 308.800323,532.574829 
	C308.001740,526.840637 308.676025,520.901367 308.862213,514.358826 
	C308.883484,513.882019 308.904755,513.405212 309.402100,512.451660 
	C310.521790,510.311188 311.641479,508.170715 313.317902,505.633575 
	C315.180756,503.418823 317.043610,501.204071 318.988892,498.987488 
	C318.988892,498.987488 318.986908,498.905060 319.585541,498.782166 
	C320.572021,498.176727 321.558533,497.571320 322.888245,496.912170 
	C322.888245,496.912170 323.086151,496.626709 323.426788,496.669952 
	C323.677002,496.554291 323.765656,496.363434 323.990173,495.907745 
	C323.990173,495.907745 324.090607,495.569550 324.360626,495.562683 
	C324.551788,495.442200 324.589111,495.284943 324.858734,494.981506 
	C324.858734,494.981506 325.111237,494.669525 325.597443,494.723297 
	C325.996155,494.477509 326.394867,494.231720 327.428772,493.926361 
	C327.629211,493.855347 327.829651,493.784363 328.469818,493.755310 
	C328.768768,493.601776 328.902405,493.357758 329.055878,493.021118 
	C329.055878,493.021118 329.058960,492.835999 329.777924,492.825928 
	C331.141632,492.544830 332.505310,492.263733 334.671051,491.909882 
	C336.652557,491.539032 338.634094,491.168182 340.962677,490.732361 
	C327.720215,471.327057 318.444550,451.139801 314.869446,428.170746 
	C299.865051,451.285156 282.417358,472.934906 276.270172,501.444672 
	C276.878418,511.638824 275.347473,521.833984 277.886963,532.068909 
	C281.418060,546.300110 289.313629,557.327881 300.460632,567.285278 
	C302.973175,568.857300 305.485718,570.429382 308.354340,572.588440 
	C312.036285,574.353027 315.669495,576.229492 319.409943,577.859863 
	C328.190063,581.687073 337.527618,580.765198 346.760651,581.072388 
	C362.643066,581.601074 375.714111,574.987305 387.072021,564.921936 
	C400.390839,553.118835 408.101196,538.216187 408.769623,519.193542 
	C408.736755,517.742615 408.703888,516.291626 408.840973,513.985718 
	C408.185394,508.781860 407.529816,503.578003 406.718079,497.964569 
	C406.718079,497.964569 406.382690,497.682404 406.497650,497.352570 
	C406.348145,497.050537 406.198639,496.748505 405.951935,495.702423 
	C405.874207,495.464661 405.796509,495.226929 405.838379,494.228424 
	C403.250946,488.162354 401.373657,481.648773 397.901855,476.140076 
	C393.242798,468.747589 387.351135,462.131927 381.876160,454.426514 
	C380.658966,453.187195 379.441742,451.947845 378.409821,450.639771 
	C378.409821,450.639771 378.148895,450.590973 377.949951,450.137909 
M301.726318,410.549500 
	C301.608673,410.302521 301.414948,410.202362 300.829681,409.585266 
	C299.529480,408.519958 298.339508,407.253784 296.890961,406.458801 
	C295.898407,405.914124 294.545959,406.025238 293.354431,405.843231 
	C293.277618,406.880096 292.906311,408.002502 293.178009,408.938171 
	C294.067352,412.000641 295.190704,414.995178 296.260040,418.846680 
	C296.717163,423.007385 297.174286,427.168091 297.645752,431.459351 
	C304.540527,426.339996 306.171539,418.416229 301.959625,411.027283 
	C301.959625,411.027283 301.723602,410.900879 301.726318,410.549500 
M444.529083,469.096313 
	C442.196106,469.102142 439.853302,469.246460 437.532440,469.081696 
	C433.982971,468.829651 432.973846,470.460602 432.989014,473.829041 
	C433.087250,495.658691 433.111298,517.489563 432.957672,539.318665 
	C432.930573,543.171326 434.368622,544.161560 437.951385,544.065186 
	C445.944763,543.850159 453.964294,544.299133 461.941681,543.879333 
	C471.302216,543.386780 479.224091,539.486877 484.880310,531.807434 
	C491.590302,522.697449 492.580322,512.085815 491.705200,501.345123 
	C490.394531,485.259308 482.075958,472.244110 462.913757,469.914856 
	C457.166779,469.216278 451.319000,469.346863 444.529083,469.096313 
M524.772400,533.035156 
	C522.173035,532.020691 519.124634,531.534607 517.114868,529.826416 
	C515.476990,528.434265 515.081665,525.580200 514.135376,523.374390 
	C515.923218,522.863037 517.688782,522.021912 519.502869,521.899658 
	C525.952026,521.464966 532.421448,521.341064 538.876282,520.977051 
	C548.213135,520.450439 548.210571,520.404907 547.885193,510.834167 
	C547.879517,510.667786 547.891785,510.499756 547.873047,510.335052 
	C546.920105,501.966034 543.591064,494.390564 536.122498,490.555908 
	C527.775146,486.269989 518.626221,485.737915 510.137085,491.380463 
	C497.585236,499.723389 495.985962,510.015991 498.948975,526.264343 
	C502.546448,545.992004 529.882507,550.068237 542.678467,540.032227 
	C544.584106,538.537598 547.311401,537.353455 545.522339,534.287415 
	C542.305420,528.774292 539.738342,527.967773 535.848999,529.818909 
	C532.648193,531.342285 529.039001,532.007446 524.772400,533.035156 
M653.911438,469.209198 
	C639.664856,469.208344 625.416016,469.094543 611.175537,469.389038 
	C609.817871,469.417114 607.420044,471.953125 607.362976,473.398193 
	C607.022156,482.028351 607.137878,490.681427 607.270203,499.324188 
	C607.445618,510.782318 607.768982,522.238220 608.043823,533.694763 
	C608.320557,545.226929 605.698792,543.815430 618.909485,543.987732 
	C621.997803,544.027954 622.979919,542.747009 622.939819,539.817688 
	C622.841797,532.653259 623.129822,525.479736 622.889343,518.322388 
	C622.747192,514.090210 624.423157,512.755981 628.467712,512.904114 
	C634.792053,513.135681 641.132263,512.897095 647.463562,512.994324 
	C651.300049,513.053284 653.894470,512.289429 652.288574,507.580750 
	C652.085754,506.986053 652.058533,506.229828 652.228027,505.626556 
	C653.186462,502.215515 651.580872,501.022552 648.431396,501.028778 
	C644.431763,501.036652 640.432068,501.025116 636.432495,501.002258 
	C620.594360,500.911621 623.251831,502.471283 622.910706,486.844452 
	C622.830566,483.173218 624.284790,481.764069 627.910217,481.832825 
	C635.240051,481.971863 642.578857,482.019409 649.903992,481.788116 
	C652.164307,481.716766 656.303833,480.652771 656.315369,479.986694 
	C656.376465,476.457367 655.396484,472.910004 653.911438,469.209198 
M689.073669,493.770996 
	C689.085571,504.430603 688.873169,515.096436 689.168213,525.748169 
	C689.509521,538.068054 695.888123,546.333252 708.968506,544.858582 
	C713.674133,544.328125 718.278015,542.895081 722.928345,541.873962 
	C725.645691,543.187134 728.566284,543.890686 731.491211,543.909119 
	C737.921631,543.949829 737.932678,543.808472 737.922363,537.268250 
	C737.901794,524.276855 737.828735,511.285370 737.853394,498.294098 
	C737.875000,486.898773 738.497559,488.219666 727.615540,488.102661 
	C723.498169,488.058411 722.024353,489.699951 722.081482,493.751282 
	C722.224670,503.906799 722.279114,514.073853 721.895325,524.218384 
	C721.811646,526.431091 720.307495,529.478210 718.503174,530.584534 
	C710.525696,535.476013 704.103943,531.640320 703.946655,522.148376 
	C703.811462,513.989319 703.915771,505.826263 703.914612,497.664948 
	C703.913208,487.935699 703.912598,488.076569 694.096741,488.019653 
	C690.473083,487.998657 688.721375,489.113739 689.073669,493.770996 
M787.078247,532.359619 
	C785.306519,529.360535 783.662292,526.276428 781.733582,523.381897 
	C778.719299,518.858276 776.931763,514.525085 781.002563,509.522797 
	C783.075317,506.975739 784.527588,503.911163 786.168030,501.028015 
	C788.392517,497.118347 790.528320,493.158264 793.330200,488.081970 
	C788.999512,488.081970 786.173645,488.399139 783.447083,488.013733 
	C778.303406,487.286652 775.407104,489.434875 773.487305,494.085663 
	C772.170654,497.275452 770.056824,500.136230 767.791443,504.013275 
	C766.197510,501.279633 764.902039,499.832184 764.452637,498.157684 
	C762.067139,489.268799 756.117676,486.821472 747.582703,487.930634 
	C743.143005,488.507599 742.425842,489.166077 744.737732,492.943176 
	C748.533630,499.144684 752.242004,505.414429 756.363525,511.396149 
	C758.671387,514.745544 758.136475,517.372864 756.144104,520.490295 
	C751.445435,527.842285 746.960999,535.331116 742.383118,542.775635 
	C750.241516,547.167053 757.473145,545.500671 761.699341,538.573608 
	C762.824524,536.729309 763.748230,534.760071 764.904602,532.937195 
	C767.184631,529.343201 768.893616,529.312622 771.028687,532.919983 
	C772.550781,535.491882 773.430115,538.533325 775.297363,540.783447 
	C776.807556,542.603394 779.285278,544.498535 781.473328,544.680115 
	C785.107666,544.981750 788.853943,543.935608 793.552368,543.327881 
	C791.250671,539.409729 789.361572,536.194031 787.078247,532.359619 
M556.607117,511.987518 
	C559.231995,519.504822 561.821411,527.034668 564.489868,534.536438 
	C568.551636,545.954895 565.264038,543.545593 577.647888,544.007507 
	C581.433716,544.148804 583.215515,542.829529 584.391602,539.137939 
	C588.009216,527.782532 592.093811,516.576538 595.934082,505.291107 
	C597.762756,499.917358 599.449280,494.495270 601.517822,488.115479 
	C596.929871,488.115479 593.622803,488.339539 590.358826,488.060028 
	C586.065674,487.692352 584.881531,489.803131 583.908997,493.662811 
	C581.464417,503.364349 578.339661,512.894531 575.487671,522.493408 
	C571.975464,514.562805 569.421814,506.614746 567.237061,498.566528 
	C564.322205,487.828918 563.708740,487.343994 552.687134,488.090637 
	C549.428467,488.311401 548.608948,489.413055 549.741699,492.487518 
	C552.033386,498.707642 554.119568,505.003479 556.607117,511.987518 
M678.004028,538.308228 
	C677.999023,525.980896 677.993408,513.653503 677.989014,501.326172 
	C677.985168,490.498108 677.853149,479.667725 678.049988,468.843292 
	C678.118530,465.069763 676.736023,463.662445 673.112488,464.060089 
	C671.960388,464.186493 670.764038,464.211456 669.619568,464.053558 
	C664.617126,463.363647 662.959045,465.373749 663.017822,470.471863 
	C663.269531,492.287872 663.188416,514.108337 663.136658,535.926941 
	C663.117615,543.957886 663.001831,543.957764 671.097534,543.952332 
	C671.930420,543.951721 672.773560,543.864319 673.594482,543.962463 
	C677.232178,544.397278 678.384277,542.556396 678.004028,538.308228 
M372.095093,409.248474 
	C372.522400,408.005371 372.953979,406.763763 373.376160,405.518921 
	C374.471527,402.289062 375.562775,399.057800 376.746338,395.558990 
	C371.719604,395.054810 366.566376,398.221619 365.427307,401.497620 
	C362.936340,408.661743 365.745514,418.542389 371.143707,421.792053 
	C371.422455,417.921967 371.703491,414.019989 372.095093,409.248474 
z"/>
<path fill="#3D4551" opacity="1.000000" stroke="none" 
	d="
M445.023254,469.096985 
	C451.319000,469.346863 457.166779,469.216278 462.913757,469.914856 
	C482.075958,472.244110 490.394531,485.259308 491.705200,501.345123 
	C492.580322,512.085815 491.590302,522.697449 484.880310,531.807434 
	C479.224091,539.486877 471.302216,543.386780 461.941681,543.879333 
	C453.964294,544.299133 445.944763,543.850159 437.951385,544.065186 
	C434.368622,544.161560 432.930573,543.171326 432.957672,539.318665 
	C433.111298,517.489563 433.087250,495.658691 432.989014,473.829041 
	C432.973846,470.460602 433.982971,468.829651 437.532440,469.081696 
	C439.853302,469.246460 442.196106,469.102142 445.023254,469.096985 
M472.968109,490.755890 
	C468.462189,482.895325 461.224335,481.384369 452.934082,481.818909 
	C449.549774,481.996277 448.013855,483.402100 448.007080,486.601410 
	C447.978271,500.229523 447.921295,513.858826 448.112427,527.484314 
	C448.132904,528.946594 449.376312,531.221558 450.605347,531.700378 
	C457.782074,534.496582 470.295898,529.490784 473.289673,522.340149 
	C477.551331,512.161194 477.621338,501.747803 472.968109,490.755890 
z"/>
<path fill="#DB2619" opacity="1.000000" stroke="none" 
	d="
M408.575043,520.052979 
	C408.101196,538.216187 400.390839,553.118835 387.072021,564.921936 
	C375.714111,574.987305 362.643066,581.601074 346.760651,581.072388 
	C337.527618,580.765198 328.190063,581.687073 319.409943,577.859863 
	C315.669495,576.229492 312.036285,574.353027 308.358093,571.982666 
	C309.521240,564.585999 313.889069,560.779114 320.038727,558.388794 
	C321.557831,557.798279 322.687073,556.204956 323.995514,555.072632 
	C327.153442,555.906677 330.324188,556.695374 333.467163,557.582397 
	C349.795410,562.190491 364.680511,555.370056 372.297974,539.633118 
	C373.620789,536.900330 374.460297,533.933716 375.786682,531.075195 
	C376.889435,534.680908 378.296600,532.988525 379.412201,531.337708 
	C381.811554,527.787292 385.140106,526.637024 389.254486,526.992493 
	C394.903961,527.480774 400.563232,527.856384 406.183105,528.277649 
	C406.894531,525.831421 407.734802,522.942200 408.575043,520.052979 
z"/>
<path fill="#F0601A" opacity="1.000000" stroke="none" 
	d="
M328.030121,493.713348 
	C327.829651,493.784363 327.629211,493.855347 326.881592,493.988037 
	C325.926666,494.256317 325.518951,494.462921 325.111237,494.669495 
	C325.111237,494.669525 324.858734,494.981506 324.584412,495.098694 
	C324.310120,495.215851 324.090607,495.569550 324.090607,495.569550 
	C324.090607,495.569550 323.990173,495.907745 323.719543,496.063354 
	C323.293091,496.323853 323.172180,496.459778 323.086151,496.626709 
	C323.086151,496.626709 322.888245,496.912170 322.403717,496.944763 
	C320.941772,497.619934 319.964325,498.262482 318.986908,498.905060 
	C318.986908,498.905060 318.988892,498.987488 318.698486,499.063690 
	C317.413025,499.265350 315.911316,499.873108 315.501068,499.442017 
	C311.198700,494.921509 306.750732,496.039795 301.997589,498.563568 
	C300.678375,499.264038 298.882996,499.480042 297.366577,499.325439 
	C290.797852,498.655670 284.375610,498.123444 280.101166,504.739044 
	C279.709595,505.345123 278.941742,505.708069 277.579376,506.801025 
	C277.310669,504.311890 277.126648,502.607086 276.942627,500.902283 
	C282.417358,472.934906 299.865051,451.285156 314.869446,428.170746 
	C318.444550,451.139801 327.720215,471.327057 340.962677,490.732361 
	C338.634094,491.168182 336.652557,491.539032 333.909302,491.933777 
	C331.784668,492.250458 330.421814,492.543243 329.058960,492.835999 
	C329.058960,492.835999 329.055878,493.021118 328.806763,493.114624 
	C328.358337,493.352020 328.182495,493.520416 328.030121,493.713348 
z"/>
<path fill="#3D4551" opacity="1.000000" stroke="none" 
	d="
M525.191589,533.044067 
	C529.039001,532.007446 532.648193,531.342285 535.848999,529.818909 
	C539.738342,527.967773 542.305420,528.774292 545.522339,534.287415 
	C547.311401,537.353455 544.584106,538.537598 542.678467,540.032227 
	C529.882507,550.068237 502.546448,545.992004 498.948975,526.264343 
	C495.985962,510.015991 497.585236,499.723389 510.137085,491.380463 
	C518.626221,485.737915 527.775146,486.269989 536.122498,490.555908 
	C543.591064,494.390564 546.920105,501.966034 547.873047,510.335052 
	C547.891785,510.499756 547.879517,510.667786 547.885193,510.834167 
	C548.210571,520.404907 548.213135,520.450439 538.876282,520.977051 
	C532.421448,521.341064 525.952026,521.464966 519.502869,521.899658 
	C517.688782,522.021912 515.923218,522.863037 514.135376,523.374390 
	C515.081665,525.580200 515.476990,528.434265 517.114868,529.826416 
	C519.124634,531.534607 522.173035,532.020691 525.191589,533.044067 
M530.790466,510.864166 
	C531.482056,509.555695 532.831787,508.199463 532.741028,506.947723 
	C532.476318,503.298462 527.839966,500.076965 523.528381,500.084381 
	C519.180908,500.091858 514.472717,503.773132 514.013855,507.470428 
	C513.686035,510.111328 514.921753,511.074097 517.435974,511.026031 
	C521.595459,510.946472 525.757202,510.983978 530.790466,510.864166 
z"/>
<path fill="#3D4551" opacity="1.000000" stroke="none" 
	d="
M654.344360,469.289062 
	C655.396484,472.910004 656.376465,476.457367 656.315369,479.986694 
	C656.303833,480.652771 652.164307,481.716766 649.903992,481.788116 
	C642.578857,482.019409 635.240051,481.971863 627.910217,481.832825 
	C624.284790,481.764069 622.830566,483.173218 622.910706,486.844452 
	C623.251831,502.471283 620.594360,500.911621 636.432495,501.002258 
	C640.432068,501.025116 644.431763,501.036652 648.431396,501.028778 
	C651.580872,501.022552 653.186462,502.215515 652.228027,505.626556 
	C652.058533,506.229828 652.085754,506.986053 652.288574,507.580750 
	C653.894470,512.289429 651.300049,513.053284 647.463562,512.994324 
	C641.132263,512.897095 634.792053,513.135681 628.467712,512.904114 
	C624.423157,512.755981 622.747192,514.090210 622.889343,518.322388 
	C623.129822,525.479736 622.841797,532.653259 622.939819,539.817688 
	C622.979919,542.747009 621.997803,544.027954 618.909485,543.987732 
	C605.698792,543.815430 608.320557,545.226929 608.043823,533.694763 
	C607.768982,522.238220 607.445618,510.782318 607.270203,499.324188 
	C607.137878,490.681427 607.022156,482.028351 607.362976,473.398193 
	C607.420044,471.953125 609.817871,469.417114 611.175537,469.389038 
	C625.416016,469.094543 639.664856,469.208344 654.344360,469.289062 
z"/>
<path fill="#3D4551" opacity="1.000000" stroke="none" 
	d="
M689.076416,493.306335 
	C688.721375,489.113739 690.473083,487.998657 694.096741,488.019653 
	C703.912598,488.076569 703.913208,487.935699 703.914612,497.664948 
	C703.915771,505.826263 703.811462,513.989319 703.946655,522.148376 
	C704.103943,531.640320 710.525696,535.476013 718.503174,530.584534 
	C720.307495,529.478210 721.811646,526.431091 721.895325,524.218384 
	C722.279114,514.073853 722.224670,503.906799 722.081482,493.751282 
	C722.024353,489.699951 723.498169,488.058411 727.615540,488.102661 
	C738.497559,488.219666 737.875000,486.898773 737.853394,498.294098 
	C737.828735,511.285370 737.901794,524.276855 737.922363,537.268250 
	C737.932678,543.808472 737.921631,543.949829 731.491211,543.909119 
	C728.566284,543.890686 725.645691,543.187134 722.928345,541.873962 
	C718.278015,542.895081 713.674133,544.328125 708.968506,544.858582 
	C695.888123,546.333252 689.509521,538.068054 689.168213,525.748169 
	C688.873169,515.096436 689.085571,504.430603 689.076416,493.306335 
z"/>
<path fill="#3D4551" opacity="1.000000" stroke="none" 
	d="
M787.275391,532.668945 
	C789.361572,536.194031 791.250671,539.409729 793.552368,543.327881 
	C788.853943,543.935608 785.107666,544.981750 781.473328,544.680115 
	C779.285278,544.498535 776.807556,542.603394 775.297363,540.783447 
	C773.430115,538.533325 772.550781,535.491882 771.028687,532.919983 
	C768.893616,529.312622 767.184631,529.343201 764.904602,532.937195 
	C763.748230,534.760071 762.824524,536.729309 761.699341,538.573608 
	C757.473145,545.500671 750.241516,547.167053 742.383118,542.775635 
	C746.960999,535.331116 751.445435,527.842285 756.144104,520.490295 
	C758.136475,517.372864 758.671387,514.745544 756.363525,511.396149 
	C752.242004,505.414429 748.533630,499.144684 744.737732,492.943176 
	C742.425842,489.166077 743.143005,488.507599 747.582703,487.930634 
	C756.117676,486.821472 762.067139,489.268799 764.452637,498.157684 
	C764.902039,499.832184 766.197510,501.279633 767.791443,504.013275 
	C770.056824,500.136230 772.170654,497.275452 773.487305,494.085663 
	C775.407104,489.434875 778.303406,487.286652 783.447083,488.013733 
	C786.173645,488.399139 788.999512,488.081970 793.330200,488.081970 
	C790.528320,493.158264 788.392517,497.118347 786.168030,501.028015 
	C784.527588,503.911163 783.075317,506.975739 781.002563,509.522797 
	C776.931763,514.525085 778.719299,518.858276 781.733582,523.381897 
	C783.662292,526.276428 785.306519,529.360535 787.275391,532.668945 
z"/>
<path fill="#3D4551" opacity="1.000000" stroke="none" 
	d="
M556.448792,511.627808 
	C554.119568,505.003479 552.033386,498.707642 549.741699,492.487518 
	C548.608948,489.413055 549.428467,488.311401 552.687134,488.090637 
	C563.708740,487.343994 564.322205,487.828918 567.237061,498.566528 
	C569.421814,506.614746 571.975464,514.562805 575.487671,522.493408 
	C578.339661,512.894531 581.464417,503.364349 583.908997,493.662811 
	C584.881531,489.803131 586.065674,487.692352 590.358826,488.060028 
	C593.622803,488.339539 596.929871,488.115479 601.517822,488.115479 
	C599.449280,494.495270 597.762756,499.917358 595.934082,505.291107 
	C592.093811,516.576538 588.009216,527.782532 584.391602,539.137939 
	C583.215515,542.829529 581.433716,544.148804 577.647888,544.007507 
	C565.264038,543.545593 568.551636,545.954895 564.489868,534.536438 
	C561.821411,527.034668 559.231995,519.504822 556.448792,511.627808 
z"/>
<path fill="#EA4B19" opacity="1.000000" stroke="none" 
	d="
M371.146667,504.998474 
	C365.257233,496.810883 359.377014,488.616638 353.469116,480.442413 
	C352.519165,479.128082 351.445648,477.903015 350.653015,476.254486 
	C360.563812,468.770569 369.358398,460.288605 381.093994,456.343262 
	C381.478790,456.213898 381.694305,455.580994 381.988708,455.182800 
	C387.351135,462.131927 393.242798,468.747589 397.901855,476.140076 
	C401.373657,481.648773 403.250946,488.162354 405.456757,494.496033 
	C390.627197,487.832642 390.794067,488.708832 381.120178,498.379974 
	C379.831329,499.668457 378.707153,501.214325 377.208557,502.176819 
	C375.350372,503.370270 373.181396,504.079865 371.146667,504.998474 
z"/>
<path fill="#F0601A" opacity="1.000000" stroke="none" 
	d="
M381.932434,454.804657 
	C381.694305,455.580994 381.478790,456.213898 381.093994,456.343262 
	C369.358398,460.288605 360.563812,468.770569 350.547119,475.938965 
	C350.217560,476.005615 350.009369,475.931793 349.988098,475.536377 
	C349.400482,474.449066 348.834076,473.757202 348.267700,473.065308 
	C347.877228,472.438812 347.486755,471.812286 347.020386,470.793243 
	C346.944489,470.400696 346.871613,470.365875 346.871613,470.365875 
	C342.306030,462.457001 337.740448,454.548126 333.242950,445.954742 
	C334.783997,443.106903 336.050537,440.761627 337.767517,438.813354 
	C343.576569,432.221924 351.776550,430.344818 359.735413,428.044891 
	C365.417389,434.914795 371.099335,441.784668 376.990601,449.086304 
	C377.199890,449.518036 377.559662,449.833740 377.559662,449.833740 
	C377.559662,449.833740 377.949951,450.137909 378.040894,450.392273 
	C378.131805,450.646667 378.224548,450.708527 378.224548,450.708527 
	C379.441742,451.947845 380.658966,453.187195 381.932434,454.804657 
z"/>
<path fill="#EA5421" opacity="1.000000" stroke="none" 
	d="
M276.606384,501.173462 
	C277.126648,502.607086 277.310669,504.311890 277.579376,506.801025 
	C278.941742,505.708069 279.709595,505.345123 280.101166,504.739044 
	C284.375610,498.123444 290.797852,498.655670 297.366577,499.325439 
	C298.882996,499.480042 300.678375,499.264038 301.997589,498.563568 
	C306.750732,496.039795 311.198700,494.921509 315.501068,499.442017 
	C315.911316,499.873108 317.413025,499.265350 318.657227,499.064606 
	C317.043610,501.204071 315.180756,503.418823 312.811737,506.063721 
	C311.179077,508.638733 310.052551,510.783569 308.926025,512.928406 
	C308.904755,513.405212 308.883484,513.882019 308.423615,514.728638 
	C305.997528,516.191772 303.225220,516.782288 302.150238,518.460144 
	C295.311310,529.134766 293.172821,540.854980 295.963867,553.263550 
	C296.988129,557.817444 298.714783,562.213318 300.121063,566.681274 
	C289.313629,557.327881 281.418060,546.300110 277.886963,532.068909 
	C275.347473,521.833984 276.878418,511.638824 276.606384,501.173462 
z"/>
<path fill="#F1741C" opacity="1.000000" stroke="none" 
	d="
M359.609253,427.724609 
	C351.776550,430.344818 343.576569,432.221924 337.767517,438.813354 
	C336.050537,440.761627 334.783997,443.106903 333.176331,445.584137 
	C332.105804,444.072327 331.215454,442.221588 330.226624,440.425018 
	C324.217865,429.508392 325.850128,417.602722 326.347351,406.032135 
	C326.546082,401.407410 329.031708,396.666809 331.274353,392.398224 
	C334.077118,387.063385 337.677246,382.144073 341.005310,377.092926 
	C341.412476,376.474976 342.264771,376.150299 343.878265,374.999878 
	C340.645325,388.613251 345.441345,400.034454 350.083405,411.301880 
	C352.428558,416.994049 356.301117,422.056946 359.609253,427.724609 
z"/>
<path fill="#3D4551" opacity="1.000000" stroke="none" 
	d="
M678.004150,538.781616 
	C678.384277,542.556396 677.232178,544.397278 673.594482,543.962463 
	C672.773560,543.864319 671.930420,543.951721 671.097534,543.952332 
	C663.001831,543.957764 663.117615,543.957886 663.136658,535.926941 
	C663.188416,514.108337 663.269531,492.287872 663.017822,470.471863 
	C662.959045,465.373749 664.617126,463.363647 669.619568,464.053558 
	C670.764038,464.211456 671.960388,464.186493 673.112488,464.060089 
	C676.736023,463.662445 678.118530,465.069763 678.049988,468.843292 
	C677.853149,479.667725 677.985168,490.498108 677.989014,501.326172 
	C677.993408,513.653503 677.999023,525.980896 678.004150,538.781616 
z"/>
<path fill="#E63819" opacity="1.000000" stroke="none" 
	d="
M371.163940,505.368073 
	C373.181396,504.079865 375.350372,503.370270 377.208557,502.176819 
	C378.707153,501.214325 379.831329,499.668457 381.120178,498.379974 
	C390.794067,488.708832 390.627197,487.832642 405.396973,494.876404 
	C405.796509,495.226929 405.874207,495.464661 405.989288,496.237854 
	C406.067719,497.106995 406.186401,497.410034 406.382690,497.682404 
	C406.382690,497.682404 406.718079,497.964569 406.805023,498.599487 
	C407.484985,504.436523 408.078003,509.638611 408.671021,514.840698 
	C408.703888,516.291626 408.736755,517.742615 408.672333,519.623291 
	C407.734802,522.942200 406.894531,525.831421 406.183105,528.277649 
	C400.563232,527.856384 394.903961,527.480774 389.254486,526.992493 
	C385.140106,526.637024 381.811554,527.787292 379.412201,531.337708 
	C378.296600,532.988525 376.889435,534.680908 375.993958,530.800720 
	C375.994934,530.244873 376.052185,529.963501 376.434631,529.004211 
	C376.633728,525.602722 376.507599,522.879211 376.381470,520.155701 
	C374.648071,515.349670 372.914673,510.543671 371.163940,505.368073 
z"/>
<path fill="#E63819" opacity="1.000000" stroke="none" 
	d="
M300.290833,566.983276 
	C298.714783,562.213318 296.988129,557.817444 295.963867,553.263550 
	C293.172821,540.854980 295.311310,529.134766 302.150238,518.460144 
	C303.225220,516.782288 305.997528,516.191772 308.337463,515.076294 
	C308.676025,520.901367 308.001740,526.840637 308.800323,532.574829 
	C310.053070,541.569885 315.024017,548.536316 322.927490,553.260376 
	C323.302338,553.484436 323.487946,554.025146 323.878601,554.745483 
	C322.687073,556.204956 321.557831,557.798279 320.038727,558.388794 
	C313.889069,560.779114 309.521240,564.585999 308.180023,571.689209 
	C305.485718,570.429382 302.973175,568.857300 300.290833,566.983276 
z"/>
<path fill="#EA5421" opacity="1.000000" stroke="none" 
	d="
M372.039795,409.683258 
	C371.703491,414.019989 371.422455,417.921967 371.143707,421.792053 
	C365.745514,418.542389 362.936340,408.661743 365.427307,401.497620 
	C366.566376,398.221619 371.719604,395.054810 376.746338,395.558990 
	C375.562775,399.057800 374.471527,402.289062 373.376160,405.518921 
	C372.953979,406.763763 372.522400,408.005371 372.039795,409.683258 
z"/>
<path fill="#EA4B19" opacity="1.000000" stroke="none" 
	d="
M301.984772,411.293793 
	C306.171539,418.416229 304.540527,426.339996 297.645752,431.459351 
	C297.174286,427.168091 296.717163,423.007385 296.583740,418.375977 
	C298.599884,415.701416 300.292328,413.497620 301.984772,411.293793 
z"/>
<path fill="#F0601A" opacity="1.000000" stroke="none" 
	d="
M301.972198,411.160522 
	C300.292328,413.497620 298.599884,415.701416 296.565765,417.960541 
	C295.190704,414.995178 294.067352,412.000641 293.178009,408.938171 
	C292.906311,408.002502 293.277618,406.880096 293.354431,405.843201 
	C294.545959,406.025238 295.898407,405.914124 296.890961,406.458801 
	C298.339508,407.253784 299.529480,408.519958 301.057129,410.045471 
	C301.401611,410.669922 301.547974,410.801666 301.723602,410.900879 
	C301.723602,410.900879 301.959625,411.027283 301.972198,411.160522 
z"/>
<path fill="#DB2619" opacity="1.000000" stroke="none" 
	d="
M408.755981,514.413208 
	C408.078003,509.638611 407.484985,504.436523 406.883087,498.804291 
	C407.529816,503.578003 408.185394,508.781860 408.755981,514.413208 
z"/>
<path fill="#DB2619" opacity="1.000000" stroke="none" 
	d="
M376.329712,520.584900 
	C376.507599,522.879211 376.633728,525.602722 376.565308,528.593872 
	C376.339874,526.245728 376.308899,523.629944 376.329712,520.584900 
z"/>
<path fill="#E63819" opacity="1.000000" stroke="none" 
	d="
M309.164062,512.690063 
	C310.052551,510.783569 311.179077,508.638733 312.533386,506.262085 
	C311.641479,508.170715 310.521790,510.311188 309.164062,512.690063 
z"/>
<path fill="#EA5421" opacity="1.000000" stroke="none" 
	d="
M319.286224,498.843628 
	C319.964325,498.262482 320.941772,497.619934 322.232117,496.971619 
	C321.558533,497.571320 320.572021,498.176727 319.286224,498.843628 
z"/>
<path fill="#EA5421" opacity="1.000000" stroke="none" 
	d="
M329.418457,492.830994 
	C330.421814,492.543243 331.784668,492.250458 333.508270,491.970154 
	C332.505310,492.263733 331.141632,492.544830 329.418457,492.830994 
z"/>
<path fill="#EA4B19" opacity="1.000000" stroke="none" 
	d="
M348.340637,473.326843 
	C348.834076,473.757202 349.400482,474.449066 349.991852,475.426025 
	C349.482422,475.003510 348.947998,474.295929 348.340637,473.326843 
z"/>
<path fill="#EA5421" opacity="1.000000" stroke="none" 
	d="
M325.354340,494.696411 
	C325.518951,494.462921 325.926666,494.256317 326.563965,494.017822 
	C326.394867,494.231720 325.996155,494.477509 325.354340,494.696411 
z"/>
<path fill="#DB2619" opacity="1.000000" stroke="none" 
	d="
M406.440186,497.517487 
	C406.186401,497.410034 406.067719,497.106995 406.037903,496.609863 
	C406.198639,496.748505 406.348145,497.050537 406.440186,497.517487 
z"/>
<path fill="#EA5421" opacity="1.000000" stroke="none" 
	d="
M328.249969,493.734314 
	C328.182495,493.520416 328.358337,493.352020 328.714172,493.115723 
	C328.902405,493.357758 328.768768,493.601776 328.249969,493.734314 
z"/>
<path fill="#EA5421" opacity="1.000000" stroke="none" 
	d="
M323.256470,496.648315 
	C323.172180,496.459778 323.293091,496.323853 323.570801,496.158203 
	C323.765656,496.363434 323.677002,496.554291 323.256470,496.648315 
z"/>
<path fill="#EA5421" opacity="1.000000" stroke="none" 
	d="
M324.225616,495.566101 
	C324.090607,495.569550 324.310120,495.215851 324.391357,495.153381 
	C324.589111,495.284943 324.551788,495.442200 324.225616,495.566101 
z"/>
<path fill="#EA4B19" opacity="1.000000" stroke="none" 
	d="
M377.580750,449.686401 
	C377.559662,449.833740 377.199890,449.518036 377.148804,449.409882 
	C377.326141,449.253143 377.494202,449.332245 377.580750,449.686401 
z"/>
<path fill="#EA4B19" opacity="1.000000" stroke="none" 
	d="
M301.724976,410.725189 
	C301.547974,410.801666 301.401611,410.669922 301.214905,410.377350 
	C301.414948,410.202362 301.608673,410.302521 301.724976,410.725189 
z"/>
<path fill="#EA4B19" opacity="1.000000" stroke="none" 
	d="
M346.798187,470.390991 
	C346.871613,470.365875 346.944489,470.400696 346.933472,470.420349 
	C346.922455,470.440002 346.724762,470.416077 346.798187,470.390991 
z"/>
<path fill="#EA4B19" opacity="1.000000" stroke="none" 
	d="
M378.317200,450.674133 
	C378.224548,450.708527 378.131805,450.646667 378.140350,450.618835 
	C378.148895,450.590973 378.409821,450.639771 378.317200,450.674133 
z"/>
<path fill="#000000" opacity="1.000000" stroke="none" 
	d="
M473.109344,491.107910 
	C477.621338,501.747803 477.551331,512.161194 473.289673,522.340149 
	C470.295898,529.490784 457.782074,534.496582 450.605347,531.700378 
	C449.376312,531.221558 448.132904,528.946594 448.112427,527.484314 
	C447.921295,513.858826 447.978271,500.229523 448.007080,486.601410 
	C448.013855,483.402100 449.549774,481.996277 452.934082,481.818909 
	C461.224335,481.384369 468.462189,482.895325 473.109344,491.107910 
z"/>
<path fill="#000000" opacity="1.000000" stroke="none" 
	d="
M530.354248,510.918152 
	C525.757202,510.983978 521.595459,510.946472 517.435974,511.026031 
	C514.921753,511.074097 513.686035,510.111328 514.013855,507.470428 
	C514.472717,503.773132 519.180908,500.091858 523.528381,500.084381 
	C527.839966,500.076965 532.476318,503.298462 532.741028,506.947723 
	C532.831787,508.199463 531.482056,509.555695 530.354248,510.918152 
z"/>
</svg>